<svg xmlns="http://www.w3.org/2000/svg" xmlns:xlink="http://www.w3.org/1999/xlink" width="1920" zoomAndPan="magnify" viewBox="0 0 1440 809.999993" height="1080" preserveAspectRatio="xMidYMid meet" version="1.0"><defs><clipPath id="7e96d637f1"><path d="M 74.28125 256 L 1365.710938 256 L 1365.710938 553.738281 L 74.28125 553.738281 Z M 74.28125 256 " clip-rule="nonzero"/></clipPath></defs><g clip-path="url(#7e96d637f1)"><path fill="#7d5438" d="M 1365.710938 439.222656 C 1361.117188 434.210938 1356.152344 429.59375 1350.824219 425.375 C 1345.457031 421.171875 1339.804688 417.398438 1333.863281 414.058594 C 1321.832031 407.417969 1309.152344 402.417969 1295.824219 399.0625 C 1282.511719 395.71875 1269.003906 393.699219 1255.296875 393.003906 C 1241.613281 392.289062 1227.953125 392.601562 1214.316406 393.949219 C 1207.507812 394.605469 1200.722656 395.523438 1193.960938 396.625 C 1190.570312 397.148438 1187.261719 397.839844 1183.90625 398.480469 C 1180.550781 399.121094 1177.230469 399.835938 1173.910156 400.5625 C 1160.585938 403.460938 1147.515625 406.863281 1134.503906 410.425781 C 1108.503906 417.597656 1082.871094 425.316406 1057.113281 431.105469 C 1044.234375 433.976562 1031.347656 436.410156 1018.429688 437.988281 C 1005.832031 439.832031 993.191406 440.234375 980.5 439.199219 C 974.488281 438.632812 968.589844 437.492188 962.800781 435.78125 C 957.261719 434.136719 952.039062 431.789062 947.136719 428.730469 C 944.847656 427.265625 942.691406 425.625 940.671875 423.804688 C 938.648438 421.984375 936.789062 420.015625 935.089844 417.894531 C 933.390625 415.769531 931.878906 413.523438 930.546875 411.152344 C 929.214844 408.78125 928.085938 406.316406 927.160156 403.761719 C 925.46875 398.992188 924.863281 394.089844 925.34375 389.054688 L 925.523438 387.296875 L 925.921875 385.613281 C 926.167969 384.484375 926.496094 383.382812 926.917969 382.308594 L 927.183594 381.484375 C 927.28125 381.230469 927.402344 381.046875 927.5 380.816406 L 927.789062 380.164062 L 928.164062 379.519531 C 928.65625 378.664062 929.21875 377.855469 929.847656 377.097656 C 931.296875 375.390625 932.949219 373.902344 934.796875 372.636719 C 936.648438 371.375 938.632812 370.378906 940.753906 369.648438 C 942.9375 368.847656 945.1875 368.324219 947.5 368.074219 C 949.667969 367.847656 951.824219 367.921875 953.96875 368.289062 C 955.824219 368.585938 957.5625 369.203125 959.191406 370.144531 C 960.574219 370.949219 961.738281 371.996094 962.691406 373.28125 C 963.71875 374.820312 964.464844 376.484375 964.929688 378.273438 C 965.390625 380.066406 965.546875 381.882812 965.394531 383.722656 C 965.074219 388.246094 963.695312 392.417969 961.261719 396.238281 C 960.945312 396.699219 960.65625 397.195312 960.328125 397.644531 L 959.3125 398.988281 L 958.234375 400.199219 C 957.871094 400.625 957.386719 401.046875 957.023438 401.484375 C 955.226562 403.214844 953.289062 404.765625 951.207031 406.136719 C 946.605469 409.089844 941.691406 411.367188 936.464844 412.96875 C 933.738281 413.855469 930.902344 414.617188 927.984375 415.269531 C 925.0625 415.925781 922.046875 416.335938 919.066406 416.835938 C 906.996094 418.613281 894.902344 418.8125 882.78125 417.429688 C 870.605469 416.09375 858.785156 413.265625 847.324219 408.949219 C 835.867188 404.664062 825.089844 399.074219 814.988281 392.179688 L 811.28125 389.539062 C 810.070312 388.65625 808.785156 387.832031 807.648438 386.824219 C 805.332031 384.886719 802.972656 382.996094 800.679688 381.035156 L 794.152344 374.785156 C 792.066406 372.617188 790.117188 370.324219 788.09375 368.121094 C 787.597656 367.550781 787.050781 367.03125 786.605469 366.425781 L 785.175781 364.59375 L 782.4375 361.035156 C 780.59375 358.707031 778.890625 356.285156 777.324219 353.765625 C 774.21875 348.914062 771.570312 343.828125 769.378906 338.5 C 767.328125 333.507812 765.929688 328.335938 765.171875 322.992188 L 764.941406 321.089844 C 764.871094 320.460938 764.859375 319.878906 764.808594 319.203125 C 764.6875 317.988281 764.808594 316.695312 764.738281 315.457031 C 764.738281 314.828125 764.808594 314.246094 764.835938 313.605469 C 764.859375 312.960938 764.835938 312.394531 764.980469 311.824219 L 765.210938 310.078125 C 765.210938 309.511719 765.441406 308.953125 765.535156 308.394531 C 766.503906 303.828125 768.285156 299.605469 770.878906 295.722656 C 771.175781 295.238281 771.503906 294.773438 771.859375 294.328125 L 772.890625 292.984375 L 773.992188 291.773438 L 774.539062 291.15625 L 775.132812 290.597656 L 776.34375 289.484375 L 777.554688 288.503906 C 777.761719 288.34375 777.953125 288.164062 778.160156 288.019531 L 778.789062 287.605469 L 780 286.769531 C 780.773438 286.28125 781.578125 285.851562 782.414062 285.476562 C 783.25 285.105469 784.105469 284.792969 784.988281 284.546875 C 785.867188 284.296875 786.761719 284.113281 787.667969 283.996094 C 788.574219 283.878906 789.484375 283.828125 790.402344 283.839844 C 791.316406 283.855469 792.222656 283.933594 793.128906 284.078125 C 794.03125 284.226562 794.917969 284.4375 795.789062 284.710938 C 796.664062 284.984375 797.511719 285.320312 798.335938 285.71875 C 799.15625 286.117188 799.949219 286.574219 800.707031 287.085938 C 804.480469 289.503906 807.625 292.570312 810.144531 296.28125 C 812.855469 300.171875 814.808594 304.410156 816.007812 309 C 816.578125 311.191406 816.933594 313.417969 817.074219 315.675781 L 817.074219 318.910156 C 817.074219 319.445312 816.976562 319.953125 816.941406 320.472656 C 816.902344 320.996094 816.757812 321.683594 816.671875 322.242188 C 815.921875 327.230469 814.441406 331.988281 812.238281 336.527344 C 807.792969 345.855469 800.476562 354.699219 791.644531 362.195312 C 787.148438 366.027344 782.421875 369.546875 777.457031 372.75 L 775.566406 373.960938 L 773.605469 375.171875 L 769.667969 377.402344 C 768.371094 378.199219 767.015625 378.902344 765.65625 379.59375 L 761.597656 381.703125 C 750.617188 387.164062 739.195312 391.445312 727.328125 394.542969 C 715.453125 397.65625 703.382812 399.539062 691.125 400.191406 C 678.867188 400.84375 666.667969 400.253906 654.53125 398.417969 L 645.539062 396.796875 L 636.660156 394.710938 C 630.761719 393.054688 624.871094 391.308594 619.082031 389.089844 C 607.289062 384.675781 595.898438 379.398438 584.90625 373.257812 C 573.722656 367.199219 562.761719 360.257812 551.882812 352.988281 C 541.003906 345.722656 530.207031 338.039062 519.171875 330.3125 C 497.316406 314.839844 474.757812 298.933594 449.839844 285.59375 C 437.25 278.769531 424.210938 272.957031 410.71875 268.148438 C 409.023438 267.507812 407.292969 266.9375 405.558594 266.417969 L 400.363281 264.78125 L 395.082031 263.351562 C 393.324219 262.878906 391.578125 262.394531 389.785156 262.019531 C 386.226562 261.207031 382.675781 260.382812 379.054688 259.804688 C 377.246094 259.488281 375.417969 259.125 373.636719 258.871094 L 368.1875 258.144531 C 353.359375 256.242188 338.542969 256.308594 323.738281 258.347656 C 321.882812 258.542969 320.019531 258.917969 318.164062 259.257812 C 316.3125 259.597656 314.457031 259.949219 312.605469 260.335938 L 307.089844 261.730469 L 304.328125 262.433594 L 301.601562 263.304688 L 296.175781 265.074219 C 294.371094 265.714844 292.613281 266.476562 290.832031 267.179688 C 287.199219 268.5 283.832031 270.304688 280.378906 271.964844 C 273.394531 275.5625 266.882812 279.875 260.847656 284.90625 C 254.839844 289.867188 249.386719 295.382812 244.496094 301.453125 C 239.566406 307.511719 235.316406 314.007812 231.734375 320.949219 C 228.15625 327.886719 225.324219 335.117188 223.246094 342.644531 C 221.136719 350.367188 219.992188 358.226562 219.816406 366.230469 C 219.722656 370.300781 219.917969 374.355469 220.402344 378.394531 C 220.886719 382.433594 221.65625 386.421875 222.710938 390.351562 C 223.765625 394.28125 225.097656 398.117188 226.699219 401.855469 C 228.304688 405.597656 230.164062 409.203125 232.28125 412.679688 C 236.460938 419.570312 241.484375 425.777344 247.355469 431.300781 C 253.03125 436.695312 259.246094 441.375 266 445.339844 C 272.539062 449.199219 279.367188 452.449219 286.484375 455.09375 C 300.421875 460.167969 314.792969 463.226562 329.589844 464.277344 C 336.851562 464.816406 344.121094 464.894531 351.394531 464.503906 C 353.210938 464.398438 355.027344 464.3125 356.847656 464.128906 L 359.574219 463.886719 L 362.382812 463.574219 C 366.136719 463.089844 369.832031 462.445312 373.503906 461.648438 C 380.890625 460.042969 388.0625 457.761719 395.019531 454.800781 C 402.238281 451.777344 408.976562 447.90625 415.226562 443.195312 C 422.039062 438.132812 427.609375 431.953125 431.945312 424.660156 C 434.214844 420.792969 435.925781 416.695312 437.085938 412.363281 C 438.246094 408.035156 438.808594 403.628906 438.777344 399.148438 C 438.757812 394.6875 438.15625 390.3125 436.972656 386.015625 C 435.785156 381.757812 434.082031 377.71875 431.859375 373.898438 C 427.605469 366.785156 422.199219 360.695312 415.640625 355.628906 C 409.628906 350.945312 403.167969 346.996094 396.253906 343.78125 C 389.601562 340.671875 382.734375 338.128906 375.660156 336.148438 C 373.917969 335.664062 372.109375 335.167969 370.402344 334.804688 L 365.265625 333.691406 C 361.851562 332.976562 358.433594 332.199219 355.003906 331.535156 L 344.648438 329.960938 L 339.460938 329.171875 L 334.253906 328.6875 L 323.832031 327.742188 C 320.355469 327.574219 316.878906 327.5 313.390625 327.378906 L 308.183594 327.210938 C 306.4375 327.210938 304.703125 327.210938 302.960938 327.28125 L 292.542969 327.546875 C 278.65625 328.238281 264.894531 329.960938 251.265625 332.710938 L 246.167969 333.738281 L 243.621094 334.25 L 241.113281 334.890625 L 231.058594 337.507812 C 227.691406 338.292969 224.433594 339.480469 221.136719 340.511719 L 216.195312 342.097656 C 214.558594 342.644531 212.886719 343.105469 211.347656 343.757812 L 201.65625 347.476562 C 200.046875 348.121094 198.410156 348.6875 196.8125 349.390625 L 192.085938 351.523438 C 188.949219 352.953125 185.773438 354.335938 182.671875 355.8125 L 173.488281 360.660156 L 168.921875 363.082031 L 164.476562 365.734375 L 155.621094 371.050781 L 147.140625 376.867188 L 142.875 379.773438 C 141.472656 380.769531 140.136719 381.871094 138.769531 382.914062 C 127.625 391.117188 117.398438 400.335938 108.082031 410.570312 C 98.59375 420.855469 90.761719 432.277344 84.582031 444.832031 C 81.542969 451.136719 79.121094 457.671875 77.3125 464.433594 C 75.511719 471.246094 74.5625 478.175781 74.464844 485.222656 C 74.34375 492.222656 75.097656 499.128906 76.730469 505.9375 C 78.320312 512.71875 80.714844 519.199219 83.914062 525.382812 C 87.113281 531.542969 91.171875 537.078125 96.089844 541.980469 C 101.015625 546.855469 106.625 550.753906 112.917969 553.671875 L 113.777344 551.925781 C 110.84375 550.402344 108.050781 548.648438 105.402344 546.671875 C 102.753906 544.691406 100.28125 542.511719 97.988281 540.132812 C 95.691406 537.75 93.605469 535.199219 91.726562 532.480469 C 89.847656 529.757812 88.199219 526.90625 86.785156 523.917969 C 83.902344 517.917969 81.796875 511.660156 80.472656 505.136719 C 79.121094 498.617188 78.605469 492.03125 78.921875 485.378906 C 79.207031 478.734375 80.273438 472.214844 82.121094 465.824219 C 84.019531 459.449219 86.488281 453.304688 89.535156 447.386719 C 95.773438 435.527344 103.558594 424.789062 112.890625 415.175781 C 122.160156 405.539062 132.253906 396.871094 143.179688 389.164062 C 144.535156 388.183594 145.84375 387.140625 147.226562 386.21875 L 151.429688 383.480469 L 159.824219 378.03125 L 168.632812 373.074219 L 172.980469 370.652344 L 177.464844 368.421875 L 186.441406 363.976562 C 189.480469 362.609375 192.570312 361.347656 195.636719 360.027344 L 200.277344 358.015625 C 201.800781 357.339844 203.402344 356.804688 204.964844 356.261719 L 214.390625 352.878906 C 215.941406 352.273438 217.5625 351.863281 219.164062 351.367188 L 224.007812 349.949219 C 227.21875 349.027344 230.382812 347.949219 233.699219 347.257812 L 243.390625 344.945312 L 245.816406 344.375 L 248.238281 343.941406 L 253.167969 343.054688 L 258.097656 342.183594 L 260.523438 341.734375 C 261.347656 341.601562 262.183594 341.527344 262.945312 341.421875 L 272.890625 340.207031 C 276.1875 339.710938 279.53125 339.613281 282.863281 339.371094 L 287.851562 339.046875 C 289.523438 338.960938 291.183594 338.753906 292.855469 338.792969 L 302.863281 338.707031 C 304.535156 338.707031 306.207031 338.621094 307.867188 338.707031 L 312.871094 338.960938 C 316.203125 339.128906 319.53125 339.261719 322.863281 339.46875 L 332.8125 340.546875 L 337.789062 341.082031 L 342.722656 341.917969 L 352.59375 343.578125 C 355.851562 344.277344 359.101562 345.066406 362.347656 345.804688 C 365.59375 346.542969 368.863281 347.257812 372.039062 348.226562 C 384.699219 352.042969 397.007812 357.652344 407.242188 365.929688 C 412.410156 370.027344 416.664062 374.921875 420 380.609375 C 421.601562 383.425781 422.8125 386.398438 423.632812 389.53125 C 424.457031 392.664062 424.859375 395.847656 424.847656 399.085938 C 424.839844 402.324219 424.402344 405.5 423.53125 408.617188 C 422.664062 411.734375 421.390625 414.679688 419.722656 417.453125 C 416.28125 423.074219 411.886719 427.816406 406.542969 431.675781 C 401.214844 435.59375 395.492188 438.789062 389.363281 441.269531 C 383.234375 443.796875 376.921875 445.726562 370.425781 447.058594 C 367.179688 447.726562 363.921875 448.273438 360.636719 448.636719 C 358.992188 448.828125 357.34375 448.972656 355.683594 449.082031 C 354.023438 449.191406 352.375 449.289062 350.714844 449.363281 C 344.066406 449.648438 337.429688 449.503906 330.800781 448.925781 C 317.472656 447.847656 304.550781 444.957031 292.03125 440.25 C 285.839844 437.882812 279.90625 434.980469 274.234375 431.542969 C 268.566406 428.136719 263.355469 424.128906 258.609375 419.523438 C 253.851562 414.945312 249.773438 409.824219 246.371094 404.164062 C 242.96875 398.503906 240.429688 392.480469 238.761719 386.089844 C 237.09375 379.703125 236.359375 373.207031 236.558594 366.605469 C 236.757812 360.023438 237.75 353.5625 239.527344 347.222656 C 241.367188 340.863281 243.835938 334.757812 246.9375 328.910156 C 250.039062 323.058594 253.707031 317.589844 257.941406 312.503906 C 262.105469 307.363281 266.757812 302.710938 271.894531 298.542969 C 277.03125 294.378906 282.546875 290.789062 288.433594 287.777344 C 291.425781 286.382812 294.347656 284.832031 297.472656 283.71875 C 299.011719 283.125 300.523438 282.507812 302.089844 281.925781 L 306.8125 280.433594 L 309.175781 279.683594 L 311.597656 279.089844 L 316.445312 277.878906 C 318.066406 277.550781 319.691406 277.285156 321.289062 276.980469 C 322.890625 276.679688 324.535156 276.363281 326.195312 276.207031 C 339.425781 274.496094 352.652344 274.535156 365.871094 276.328125 C 379.097656 278.074219 391.992188 281.195312 404.554688 285.691406 C 417.09375 290.230469 429.207031 295.707031 440.898438 302.121094 C 464.414062 314.816406 486.304688 330.347656 508.160156 345.890625 C 530.015625 361.433594 551.964844 377.121094 575.625 390.144531 C 587.441406 396.765625 599.683594 402.457031 612.359375 407.226562 C 618.671875 409.648438 625.175781 411.613281 631.742188 413.441406 L 641.640625 415.792969 L 651.632812 417.609375 C 665.082031 419.632812 678.597656 420.273438 692.175781 419.53125 C 705.757812 418.789062 719.121094 416.675781 732.269531 413.199219 C 745.417969 409.742188 758.074219 404.972656 770.238281 398.890625 L 774.742188 396.542969 C 776.257812 395.765625 777.75 394.980469 779.203125 394.117188 L 783.574219 391.527344 L 785.769531 390.242188 L 787.914062 388.824219 C 793.636719 385.125 799.074219 381.046875 804.230469 376.589844 C 814.492188 367.695312 823.53125 357.046875 829.417969 344.582031 C 832.410156 338.316406 834.40625 331.746094 835.402344 324.871094 C 836.460938 317.894531 836.058594 311.007812 834.191406 304.203125 C 832.382812 297.4375 829.453125 291.195312 825.394531 285.484375 C 821.382812 279.6875 816.382812 274.921875 810.398438 271.191406 C 808.910156 270.238281 807.367188 269.398438 805.761719 268.667969 C 804.15625 267.9375 802.503906 267.320312 800.8125 266.824219 C 799.121094 266.328125 797.398438 265.953125 795.652344 265.699219 C 793.90625 265.445312 792.152344 265.320312 790.386719 265.316406 C 788.625 265.3125 786.867188 265.433594 785.121094 265.679688 C 783.375 265.925781 781.652344 266.296875 779.960938 266.785156 C 778.265625 267.277344 776.613281 267.886719 775.003906 268.609375 C 773.398438 269.335938 771.847656 270.171875 770.359375 271.117188 C 769.621094 271.601562 768.917969 272.113281 768.191406 272.597656 L 767.113281 273.347656 C 766.761719 273.601562 766.433594 273.890625 766.09375 274.171875 L 764.070312 275.84375 L 762.207031 277.660156 C 760.910156 278.871094 759.867188 280.226562 758.691406 281.523438 C 758.160156 282.203125 757.648438 282.90625 757.128906 283.609375 C 756.597656 284.292969 756.105469 285.003906 755.652344 285.742188 C 751.820312 291.613281 749.222656 297.992188 747.863281 304.871094 C 746.554688 311.710938 746.421875 318.578125 747.460938 325.464844 C 748.488281 332.277344 750.332031 338.859375 752.996094 345.210938 C 755.644531 351.511719 758.835938 357.527344 762.570312 363.25 C 764.386719 366.125 766.347656 368.894531 768.457031 371.5625 L 771.59375 375.582031 L 773.167969 377.582031 C 773.679688 378.261719 774.296875 378.792969 774.851562 379.484375 C 777.167969 381.90625 779.394531 384.535156 781.769531 386.960938 L 789.183594 393.925781 C 791.777344 396.117188 794.441406 398.214844 797.058594 400.371094 C 798.34375 401.472656 799.773438 402.394531 801.152344 403.375 L 805.320312 406.292969 C 816.632812 413.878906 828.6875 420 841.484375 424.660156 C 854.273438 429.375 867.449219 432.414062 881.015625 433.769531 C 894.582031 435.144531 908.097656 434.738281 921.5625 432.558594 C 928.308594 431.574219 934.917969 430 941.382812 427.835938 C 947.945312 425.699219 954.089844 422.710938 959.820312 418.871094 C 962.683594 416.914062 965.34375 414.710938 967.792969 412.253906 C 970.277344 409.789062 972.414062 407.050781 974.199219 404.042969 C 976.03125 401.046875 977.457031 397.875 978.484375 394.519531 C 979.507812 391.167969 980.101562 387.738281 980.257812 384.234375 C 980.441406 380.667969 980.019531 377.171875 978.992188 373.75 C 977.964844 370.328125 976.390625 367.179688 974.273438 364.304688 C 972.0625 361.429688 969.378906 359.105469 966.21875 357.328125 C 963.085938 355.625 959.761719 354.511719 956.234375 353.996094 C 952.753906 353.484375 949.269531 353.4375 945.777344 353.847656 C 942.285156 354.257812 938.90625 355.117188 935.640625 356.417969 C 932.34375 357.636719 929.269531 359.277344 926.421875 361.332031 C 923.570312 363.390625 921.046875 365.789062 918.847656 368.53125 C 916.640625 371.308594 914.96875 374.378906 913.832031 377.738281 C 913.226562 379.378906 912.757812 381.054688 912.429688 382.765625 L 911.917969 385.335938 C 911.820312 386.195312 911.761719 387.066406 911.675781 387.929688 C 911.15625 394.953125 912.140625 401.761719 914.621094 408.355469 C 915.851562 411.574219 917.339844 414.667969 919.082031 417.644531 C 920.824219 420.617188 922.796875 423.429688 925.003906 426.074219 C 927.207031 428.722656 929.617188 431.171875 932.226562 433.425781 C 934.835938 435.675781 937.613281 437.695312 940.558594 439.488281 C 946.472656 443.015625 952.746094 445.695312 959.382812 447.53125 C 965.964844 449.355469 972.660156 450.519531 979.46875 451.035156 C 993.027344 451.933594 1006.511719 451.300781 1019.921875 449.132812 C 1033.265625 447.207031 1046.480469 444.605469 1059.5625 441.332031 C 1085.703125 434.859375 1111.304688 426.464844 1136.9375 418.773438 C 1149.792969 414.945312 1162.683594 411.285156 1175.703125 408.136719 C 1178.964844 407.347656 1182.210938 406.546875 1185.492188 405.871094 C 1188.777344 405.191406 1192.023438 404.40625 1195.304688 403.8125 C 1201.871094 402.597656 1208.476562 401.484375 1215.101562 400.671875 C 1241.597656 397.4375 1268.722656 397.644531 1294.792969 403.496094 C 1307.894531 406.363281 1320.414062 410.851562 1332.347656 416.96875 C 1344.257812 423.144531 1354.914062 431.015625 1364.320312 440.578125 Z M 1365.710938 439.222656 " fill-opacity="1" fill-rule="nonzero"/></g></svg>