<svg xmlns="http://www.w3.org/2000/svg" xmlns:xlink="http://www.w3.org/1999/xlink" width="480" zoomAndPan="magnify" viewBox="0 0 360 503.999982" height="672" preserveAspectRatio="xMidYMid meet" version="1.0"><defs><clipPath id="22cf500c11"><path d="M 44.398438 51.855469 L 315.601562 51.855469 L 315.601562 437.46875 L 44.398438 437.46875 Z M 44.398438 51.855469 " clip-rule="nonzero"/></clipPath><clipPath id="ff530ab294"><path d="M 134.847656 60.441406 C 148.707031 55.257812 164.558594 51.855469 180.074219 51.855469 C 195.585938 51.855469 210.515625 54.769531 224.273438 59.953125 C 224.566406 60.117188 224.859375 60.117188 225.152344 60.277344 C 276.816406 81.015625 314.867188 135.769531 315.601562 200.1875 L 315.601562 437.148438 L 44.398438 437.148438 L 44.398438 200.363281 C 45.132812 135.445312 82.597656 80.691406 134.847656 60.441406 Z M 134.847656 60.441406 " clip-rule="nonzero"/></clipPath><clipPath id="beaf6d0049"><path d="M 44.398438 51.855469 L 315.898438 51.855469 L 315.898438 437.355469 L 44.398438 437.355469 Z M 44.398438 51.855469 " clip-rule="nonzero"/></clipPath><clipPath id="b1f3e95955"><path d="M 134.847656 60.441406 C 148.707031 55.257812 164.558594 51.855469 180.070312 51.855469 C 195.585938 51.855469 210.511719 54.769531 224.269531 59.953125 C 224.5625 60.117188 224.855469 60.117188 225.148438 60.277344 C 276.8125 81.011719 314.863281 135.765625 315.59375 200.183594 L 315.59375 437.144531 L 44.398438 437.144531 L 44.398438 200.359375 C 45.132812 135.445312 82.597656 80.691406 134.847656 60.441406 Z M 134.847656 60.441406 " clip-rule="nonzero"/></clipPath></defs><g clip-path="url(#22cf500c11)"><g clip-path="url(#ff530ab294)"><path fill="#e4e0d3" d="M 44.398438 51.855469 L 315.601562 51.855469 L 315.601562 437.46875 L 44.398438 437.46875 Z M 44.398438 51.855469 " fill-opacity="1" fill-rule="nonzero"/></g></g><g clip-path="url(#beaf6d0049)"><g clip-path="url(#b1f3e95955)"><path stroke-linecap="butt" transform="matrix(0.75, 0, 0, 0.75, 44.399674, 51.85466)" fill="none" stroke-linejoin="miter" d="M 120.597311 11.448995 C 139.076478 4.537537 160.211895 0.00107831 180.894187 0.00107831 C 201.581687 0.00107831 221.482729 3.886495 239.826479 10.797953 C 240.217104 11.016703 240.607729 11.016703 240.998354 11.230245 C 309.883772 38.876079 360.618147 111.881288 361.592106 197.771914 L 361.592106 513.719835 L -0.00164882 513.719835 L -0.00164882 198.006289 C 0.977518 111.454205 50.930644 38.448995 120.597311 11.448995 Z M 120.597311 11.448995 " stroke="#cfaa8e" stroke-width="4" stroke-opacity="1" stroke-miterlimit="4"/></g></g></svg>